<?xml version="1.0" encoding="utf-8"?>
<!-- Generator: Adobe Illustrator 23.0.6, SVG Export Plug-In . SVG Version: 6.00 Build 0)  -->
<svg version="1.1" id="Layer_1" xmlns="http://www.w3.org/2000/svg" xmlns:xlink="http://www.w3.org/1999/xlink" x="0px" y="0px"
	 viewBox="0 0 1024 1024" style="enable-background:new 0 0 1024 1024;" xml:space="preserve">
<style type="text/css">
	.st0{fill:url(#SVGID_1_);}
	.st1{fill:url(#SVGID_2_);}
	.st2{fill:url(#SVGID_3_);}
	.st3{fill:url(#SVGID_4_);}
	.st4{fill:#A8AAAD;}
	.st5{fill:#D1D3D4;}
	.st6{fill:#0D91D3;}
</style>
<desc>Created with Fabric.js 3.1.0</desc>
<g transform="matrix(1.5745007680491552 0 0 1.5745007680491552 512 457.0146543778801)">
	<g id="logo-logo" transform="matrix(0.5102 0 0 -0.5102 0.003100000000017644 -0.017599999999958982)">
		
			<radialGradient id="SVGID_1_" cx="-382.3411" cy="-562.2377" r="1" gradientTransform="matrix(181.7094 0 0 -181.7094 69474.9453 -102163.8594)" gradientUnits="userSpaceOnUse">
			<stop  offset="0" style="stop-color:#009BDC"/>
			<stop  offset="9.696999e-02" style="stop-color:#009BDC"/>
			<stop  offset="1" style="stop-color:#3753A4"/>
		</radialGradient>
		<path class="st0" d="M-143,79.5c51.6-9.7,90.6-54.9,90.6-109.3l0,0c0-1.3,0-2.5-0.1-3.8l0,0c-1.4,60.3-50.6,108.7-111.2,108.7l0,0
			c-61.4,0-111.2-49.8-111.2-111.2l0,0c0-61.4,49.8-111.2,111.2-111.2l0,0c23,0,44.4,7,62.2,19l0,0c27.9-22.1,63.1-35.3,101.5-35.3
			l0,0c38.3,0,73.6,13.2,101.5,35.3l0,0c17.8-12,39.1-19,62.2-19l0,0c61.4,0,111.2,49.8,111.2,111.2l0,0
			c0,61.4-49.8,111.2-111.2,111.2l0,0c-60.6,0-109.8-48.4-111.2-108.7l0,0c0,1.3-0.1,2.5-0.1,3.8l0,0c0,54.4,39,99.6,90.6,109.3l0,0
			c-28,50.2-81.5,84.1-143,84.1l0,0C-61.5,163.6-115.1,129.7-143,79.5"/>
	</g>
	<g transform="matrix(0.5102 0 0 -0.5102 84.1996 18.194200000000038)">
		
			<linearGradient id="SVGID_2_" gradientUnits="userSpaceOnUse" x1="-547.606" y1="-525.2238" x2="-546.606" y2="-525.2238" gradientTransform="matrix(115.9561 -124.3477 -124.3477 -115.9561 -1884.2928 -128919.1094)">
			<stop  offset="0" style="stop-color:#3753A4"/>
			<stop  offset="0.7991" style="stop-color:#3753A4"/>
			<stop  offset="1" style="stop-color:#009BDC"/>
		</linearGradient>
		<path class="st1" d="M-105.8,0c0-58.4,47.4-105.8,105.8-105.8l0,0c58.4,0,105.8,47.4,105.8,105.8l0,0
			c0,58.4-47.4,105.8-105.8,105.8l0,0C-58.4,105.8-105.8,58.4-105.8,0"/>
	</g>
	<g transform="matrix(0.5102 0 0 -0.5102 -82.7957 18.194200000000038)">
		
			<linearGradient id="SVGID_3_" gradientUnits="userSpaceOnUse" x1="-219.0503" y1="-524.0654" x2="-218.0504" y2="-524.0654" gradientTransform="matrix(115.9562 124.3477 -124.3477 115.9562 -39838.2695 87929.6328)">
			<stop  offset="0" style="stop-color:#009BDC"/>
			<stop  offset="0.2009" style="stop-color:#3753A4"/>
			<stop  offset="1" style="stop-color:#3753A4"/>
		</linearGradient>
		<path class="st2" d="M-105.8,0c0-58.4,47.4-105.8,105.8-105.8l0,0c58.4,0,105.8,47.4,105.8,105.8l0,0
			c0,58.4-47.4,105.8-105.8,105.8l0,0C-58.4,105.8-105.8,58.4-105.8,0"/>
	</g>
	<g transform="matrix(0.5102 0 0 -0.5102 0.0033999999999849706 0)">
		
			<linearGradient id="SVGID_4_" gradientUnits="userSpaceOnUse" x1="-380.3813" y1="-562.3838" x2="-379.3813" y2="-562.3838" gradientTransform="matrix(-1.148734e-05 262.9645 262.9645 1.148734e-05 147886.9688 99863.1016)">
			<stop  offset="0" style="stop-color:#009BDC"/>
			<stop  offset="0.5988" style="stop-color:#3753A4"/>
			<stop  offset="1" style="stop-color:#3753A4"/>
		</linearGradient>
		<path class="st3" d="M-143,79.5c5.6-1.1,11.1-2.5,16.3-4.4l0,0c43.3-15.2,74.3-56.4,74.3-104.9l0,0c0-1.3,0-2.5-0.1-3.8l0,0
			c-1.2,54.3-41.4,99.1-93.7,107.3l0,0c-11.2-22.2-17.5-47.2-17.5-73.7l0,0c0-90.4,73.3-163.7,163.7-163.7l0,0
			c90.4,0,163.7,73.3,163.7,163.7l0,0c0,26.5-6.3,51.6-17.5,73.7l0,0c-52.3-8.2-92.5-53-93.7-107.3l0,0c0,1.3-0.1,2.5-0.1,3.8l0,0
			c0,48.5,31,89.7,74.3,104.9l0,0c5.3,1.9,10.7,3.4,16.3,4.4l0,0c-28,50.2-81.5,84.1-143,84.1l0,0C-61.5,163.7-115.1,129.7-143,79.5
			"/>
	</g>
	<g transform="matrix(0.5102 0 0 -0.5102 122.22640000000001 18.415000000000028)">
		<path class="st4" d="M-51.8,111.2c-2.5,0-5-0.1-7.5-0.3C-1.4,107.1,44.4,58.9,44.4,0c0-58.9-45.8-107.1-103.8-111
			c2.5-0.2,5.1-0.3,7.7-0.3C9.6-111.2,59.4-61.4,59.4,0C59.4,61.4,9.6,111.2-51.8,111.2"/>
	</g>
	<g transform="matrix(0.5102 0 0 -0.5102 134.53829999999994 18.415000000000028)">
		<path class="st5" d="M-51.8,111.2c-2.5,0-5-0.1-7.5-0.3C-1.4,107.1,44.4,58.9,44.4,0c0-58.9-45.8-107.1-103.8-111
			c2.5-0.2,5.1-0.3,7.7-0.3C9.6-111.2,59.4-61.4,59.4,0C59.4,61.4,9.6,111.2-51.8,111.2"/>
	</g>
	<g transform="matrix(0.5102 0 0 -0.5102 -122.2264 18.415000000000028)">
		<path class="st4" d="M51.8,111.2c2.5,0,5-0.1,7.5-0.3C1.4,107.1-44.4,58.9-44.4,0c0-58.9,45.8-107.1,103.8-111
			c-2.5-0.2-5.1-0.3-7.7-0.3C-9.6-111.2-59.4-61.4-59.4,0C-59.4,61.4-9.6,111.2,51.8,111.2"/>
	</g>
	<g transform="matrix(0.5102 0 0 -0.5102 -134.5383 18.415000000000028)">
		<path class="st5" d="M51.8,111.2c2.5,0,5-0.1,7.5-0.3C1.4,107.1-44.4,58.9-44.4,0c0-58.9,45.8-107.1,103.8-111
			c-2.5-0.2-5.1-0.3-7.7-0.3C-9.6-111.2-59.4-61.4-59.4,0C-59.4,61.4-9.6,111.2,51.8,111.2"/>
	</g>
</g>
<g transform="matrix(1.5745007680491552 0 0 1.5745007680491552 512 651.8958971608665)">
	<path class="st6" d="M-295.8,13h-0.2v-0.2v-25.3v-0.2V-13h0.4h3.8h0.2h0.2c2.3,0,4.5,0.6,6.4,1.8s3.5,2.7,4.6,4.7
		c1.1,2,1.7,4.1,1.7,6.4s-0.6,4.5-1.7,6.4c-1.1,2-2.7,3.5-4.6,4.7c-2,1.2-4.1,1.8-6.4,1.8l0,0h-0.2h-2.3h-1.7H-295.8z M-291.3-8.3
		V8.3c2.2-0.1,4.1-0.9,5.7-2.5c1.6-1.6,2.4-3.5,2.4-5.8s-0.8-4.2-2.4-5.8C-287.1-7.4-289-8.2-291.3-8.3L-291.3-8.3z M-266,13
		L-266,13v-0.2v-0.2h0.1l8.4-25.3v-0.2h0.1V-13l0.2,0.1h4.2l0.2-0.1l0,0.1h0.1v0.2l8.4,25.3h0.1v0.2l0.1,0.2l-0.1,0V13h-0.2
		l-0.2,0.1l0-0.1h-4.1l-0.2,0.1l0-0.1h-0.1v-0.2l-2.1-6.2h-8.2l-2,6.2V13h-0.1l0,0.1l-0.2-0.1h-4.1l0,0.1l-0.2-0.1L-266,13L-266,13z
		 M-255.2-5.6l-2.5,7.5h0.4h4.2h0.4L-255.2-5.6z M-230.7,13h-0.2v-0.2v-0.2v-25.1v-0.2V-13h0.2h0.2h4h0.2h4h0.2v0
		c2.4,0.1,4.4,0.9,6,2.6s2.5,3.7,2.5,6.1l0,0c0,1.6-0.4,3.1-1.3,4.5s-2,2.4-3.4,3.2l0,0l0.2,0.5l0.1,0.2l4.2,8.4h0.1V13h-0.2h-4.3
		h-0.2v-0.2l-4.2-8.3h-3.9v8V13h-0.2h-4H-230.7z M-226.2-8.3v8h4c1.1,0,2.1-0.4,2.9-1.2c0.8-0.8,1.2-1.7,1.2-2.8
		c0-1.1-0.4-2.1-1.2-2.8c-0.8-0.8-1.7-1.2-2.9-1.2l0,0H-226.2z M-198.3,12.9h-0.2v-0.2v-25.3v-0.2V-13h0.4h3.8h0.2h0.2v0.2v0.2v12.3
		h1.8l4.2-12.6V-13h0.2h6.4h0.2v0.2v4v0.4h-0.2h-4.1l-2.5,7.4l0.3,0.6h0l0.1,0.2l6.3,12.6h0.1v0.4h-0.2h-4.3h-0.2v-0.2l-4.2-8.3
		h-3.9v8v0.4h-0.2h-4H-198.3z M-158,13h-0.2v-0.2v-0.2v-25.1v-0.2V-13h0.2h0.2h3.9h0.2h0.1v0.1l8.3,10.3l8.3-10.3V-13h0.1h0.2h0.1h4
		h0.2v0.2v25.3V13h-0.2h-4h-0.2h-0.2v-0.2V-5.7l-5.9,7.9v0.1h-0.1l-0.1,0.1l-0.1-0.1h-4.1l-0.1,0.1l-0.1-0.1h-0.1V2.2l-5.9-7.9v18.2
		V13h-0.2h-4H-158z M-118.9,13L-118.9,13v-0.2v-0.2h0.1l8.4-25.3v-0.2h0.1V-13l0.2,0.1h4.2l0.2-0.1l0,0.1h0.1v0.2l8.4,25.3h0.1v0.2
		l0.1,0.2l-0.1,0V13h-0.2l-0.2,0.1l0-0.1h-4.1l-0.2,0.1l0-0.1h-0.1v-0.2l-2.1-6.2h-8.2l-2.1,6.2V13h-0.1l0,0.1l-0.2-0.1h-4.1l0,0.1
		l-0.2-0.1L-118.9,13L-118.9,13z M-108.1-5.6l-2.5,7.5h0.4h4.2h0.4L-108.1-5.6z M-84.7-8.3h-0.4v-0.2v-0.2v-3.8v-0.2V-13h0.4h16.8
		h0.2v0.2v4v0.4h-0.2h-6.2v20.8v0.4h-0.2h-4h-0.2h-0.2v-0.2v-0.2V-8.3H-84.7z M-54.2-8.3h-0.4v-0.2v-0.2v-3.8v-0.2V-13h0.4h16.8h0.2
		v0.2v4v0.4h-0.2h-6.2v20.8v0.4h-0.2h-4H-48h-0.2v-0.2v-0.2V-8.3H-54.2z M-22.6,13h-0.2v-0.2v-0.2v-25.1v-0.2V-13h0.2h0.2h4h0.2h8.3
		h0.2v0.2v4v0.5h-0.2h-8.3v5.9h6.1h0.2v0.2v4v0.4H-12h-6.1v5.9h8.3h0.2v0.2v4V13h-0.2h-8.5h-4H-22.6z M5.5,13H5.3v-0.2v-0.2v-25.1
		v-0.2V-13h0.2h0.2h4H10h4h0.2v0c2.4,0.1,4.4,0.9,6,2.6c1.7,1.7,2.5,3.7,2.5,6.1l0,0c0,1.6-0.4,3.1-1.3,4.5s-2,2.4-3.4,3.2l0,0
		L18.3,4l0.1,0.2l4.2,8.4h0.1V13h-0.2h-4.3H18v-0.2l-4.2-8.3H10v8V13H9.8h-4H5.5z M10-8.3v8h4c1.1,0,2.1-0.4,2.8-1.2
		C17.6-2.2,18-3.1,18-4.3c0-1.1-0.4-2.1-1.2-2.8c-0.8-0.8-1.7-1.2-2.8-1.2l0,0H10z M47.4,1.8c-1.7-1.7-2.5-3.7-2.5-6.1
		c0-2.4,0.8-4.4,2.5-6.1c1.7-1.7,3.7-2.6,6-2.6l0,0h0.2h0.2h4h0.2v0.2v4v0.5h-0.2h-4h-0.2c-1.1,0-2.1,0.4-2.9,1.2
		c-0.8,0.8-1.2,1.7-1.2,2.8l0,0c0,1.1,0.4,2,1.1,2.8c0.7,0.8,1.6,1.2,2.7,1.3l0,0V-4v-0.2v-0.2h0.2h0.2c2.4,0.1,4.4,0.9,6,2.6
		c1.7,1.7,2.5,3.7,2.5,6.1c0,2.4-0.8,4.4-2.5,6.1s-3.7,2.6-6,2.6l0,0h-0.2h-6.2h-0.2H47v-0.2v-4V8.5V8.3h0.4h5.9h0.2
		c1.1,0,2.1-0.4,2.8-1.2c0.8-0.8,1.2-1.7,1.2-2.9l0,0c0-1.1-0.4-2-1.1-2.8c-0.7-0.8-1.6-1.2-2.7-1.3l0,0V4v0.4h-0.2h-0.2v0
		C51,4.4,49,3.5,47.4,1.8z M75.5,0L75.5,0c0-1.8,0.3-3.4,1-5c0.7-1.6,1.6-3,2.8-4.1c1.2-1.2,2.6-2.1,4.1-2.8c1.6-0.7,3.3-1,5-1l0,0
		c2.3,0,4.5,0.6,6.5,1.7s3.6,2.7,4.7,4.7s1.7,4.2,1.7,6.5c0,2.4-0.6,4.5-1.7,6.5c-1.2,2-2.7,3.6-4.7,4.7c-2,1.2-4.2,1.7-6.5,1.7
		c-2.4,0-4.5-0.6-6.5-1.7c-2-1.2-3.6-2.7-4.7-4.7C76.1,4.5,75.5,2.4,75.5,0z M82.7-5.9c-1.6,1.6-2.4,3.6-2.4,5.9s0.8,4.2,2.4,5.9
		c1.6,1.6,3.6,2.4,5.9,2.4c2.3,0,4.2-0.8,5.8-2.4s2.4-3.6,2.4-5.9c0-2.3-0.8-4.2-2.4-5.9c-1.6-1.6-3.6-2.4-5.8-2.4
		C86.2-8.3,84.3-7.5,82.7-5.9z M116.2,13h-0.2v-0.2v-0.2v-25.1v-0.2V-13h0.2h0.2h4h0.2h8.3h0.2v0.2v4v0.5h-0.2h-8.3v5.9h8.3h0.2v0.2
		v4v0.4h-0.2h-8.3v10.2V13h-0.2h-4H116.2z M143.1-8.3h-0.5v-0.2v-0.2v-3.8v-0.2V-13h0.5h16.8h0.2v0.2v4v0.4h-0.2h-6.2v20.8v0.4h-0.2
		h-4h-0.2h-0.2v-0.2v-0.2V-8.3H143.1z M172.9-12.8l-0.1-0.2l0.1,0V-13h0.2l0.2,0l0,0h4.1l0.2,0l0,0h0.1v0.2l6.1,18.5l1.9-5.6
		l-4.2-12.5h-0.1v-0.2l-0.1-0.2l0.1,0V-13h0.2l0.2,0l0,0h4l0.2,0l0,0h0.1v0.2l1.9,5.7l1.9-5.7V-13h0.1l0,0l0.2,0h4.1l0,0l0.2,0h0.2
		v0.1l0.1,0l-0.1,0.2v0.2h-0.1l-4.2,12.5l1.9,5.7l6.1-18.5V-13h0.1l0,0l0.2,0h4.1l0,0l0.2,0h0.2v0.1l0.1,0l-0.1,0.2v0.2h-0.1
		l-8.5,25.3v0.2h-0.1l0,0.1l-0.2-0.1h-4.2L190,13l0-0.1h-0.1v-0.2L188,7l-1.9,5.7v0.2h-0.1l0,0.1l-0.2-0.1h-4.2l-0.2,0.1l0-0.1h-0.1
		v-0.2L173-12.6h-0.1V-12.8z M215.3,13L215.3,13v-0.2v-0.2h0.1l8.4-25.3v-0.2h0.1V-13l0.2,0.1h4.2l0.2-0.1l0,0.1h0.1v0.2l8.4,25.3
		h0.1v0.2l0,0.2l0,0V13h-0.2l-0.2,0.1l0-0.1h-4l-0.2,0.1l0-0.1h-0.1v-0.2l-2.1-6.2H222l-2,6.2V13h-0.1l0,0.1l-0.2-0.1h-4.1l0,0.1
		l-0.2-0.1L215.3,13L215.3,13z M226.1-5.6L223.6,2h0.4h4.2h0.4L226.1-5.6z M250.6,13h-0.2v-0.2v-0.2v-25.1v-0.2V-13h0.2h0.2h4h0.2h4
		h0.2v0c2.4,0.1,4.4,0.9,6,2.6s2.5,3.7,2.5,6.1l0,0c0,1.6-0.4,3.1-1.3,4.5c-0.8,1.4-2,2.4-3.4,3.2l0,0l0.2,0.5l0.1,0.2l4.2,8.4h0.1
		V13h-0.2h-4.3h-0.2v-0.2L259,4.5h-3.9v8V13h-0.2h-4H250.6z M255.1-8.3v8h4c1.1,0,2.1-0.4,2.9-1.2c0.8-0.8,1.2-1.7,1.2-2.8
		c0-1.1-0.4-2.1-1.2-2.8c-0.8-0.8-1.7-1.2-2.9-1.2l0,0H255.1z M283,13h-0.2v-0.2v-0.2v-25.1v-0.2V-13h0.2h0.2h4h0.2h8.3h0.2v0.2v4
		v0.5h-0.2h-8.3v5.9h6.1h0.2v0.2v4v0.4h-0.2h-6.1v5.9h8.3h0.2v0.2v4V13h-0.2h-8.5h-4H283z"/>
</g>
</svg>
